<?xml version="1.0" encoding="utf-8"?>
<!-- Generator: Adobe Illustrator 15.0.2, SVG Export Plug-In . SVG Version: 6.00 Build 0)  -->
<!DOCTYPE svg PUBLIC "-//W3C//DTD SVG 1.1//EN" "http://www.w3.org/Graphics/SVG/1.1/DTD/svg11.dtd">
<svg version="1.1" id="Layer_1" xmlns="http://www.w3.org/2000/svg" xmlns:xlink="http://www.w3.org/1999/xlink" x="0px" y="0px"
	 width="100px" height="100px" viewBox="0 0 100 100" enable-background="new 0 0 100 100" xml:space="preserve">
<g>
	<path fill="none" stroke="#585859" stroke-miterlimit="10" d="M76.66,67.018c0,0.961-0.779,1.74-1.742,1.74H24.65
		c-0.961,0-1.74-0.779-1.74-1.74V32.029c0-0.961,0.779-1.74,1.74-1.74h50.268c0.963,0,1.742,0.779,1.742,1.74V67.018z"/>
	<g>
		<g>
			<line fill="none" stroke="#585859" stroke-width="2" stroke-miterlimit="10" x1="27.826" y1="54.773" x2="71.743" y2="54.773"/>
			<line fill="none" stroke="#585859" stroke-width="2" stroke-miterlimit="10" x1="27.826" y1="59.189" x2="71.743" y2="59.189"/>
			<line fill="none" stroke="#585859" stroke-width="2" stroke-miterlimit="10" x1="27.826" y1="63.607" x2="71.743" y2="63.607"/>
		</g>
	</g>
	<g>
		<line fill="none" stroke="#585859" stroke-miterlimit="10" x1="28.5" y1="36" x2="71.5" y2="50.333"/>
		<g>
			<g>
				<path fill="#585859" d="M70.766,35.939l0.037,14.168h-42l-0.037-14.168H70.766 M71.764,34.939h-44l0.041,16.168h44
					L71.764,34.939L71.764,34.939z"/>
			</g>
			<line fill="none" stroke="#585859" stroke-miterlimit="10" x1="71.5" y1="35.833" x2="28.833" y2="50.333"/>
		</g>
	</g>
</g>
</svg>
