<?xml version="1.0" encoding="utf-8"?>
<!-- Generator: Adobe Illustrator 15.0.2, SVG Export Plug-In . SVG Version: 6.00 Build 0)  -->
<!DOCTYPE svg PUBLIC "-//W3C//DTD SVG 1.1//EN" "http://www.w3.org/Graphics/SVG/1.1/DTD/svg11.dtd">
<svg version="1.1" id="Layer_1" xmlns="http://www.w3.org/2000/svg" xmlns:xlink="http://www.w3.org/1999/xlink" x="0px" y="0px"
	 width="100px" height="100px" viewBox="0 0 100 100" enable-background="new 0 0 100 100" xml:space="preserve">
<g>
	<path fill="none" stroke="#585859" stroke-miterlimit="10" d="M76.708,67.018c0,0.961-0.778,1.74-1.741,1.74H24.698
		c-0.961,0-1.74-0.779-1.74-1.74V32.029c0-0.961,0.779-1.74,1.74-1.74h50.269c0.963,0,1.741,0.779,1.741,1.74V67.018z"/>
	<g>
		<g>
			<line fill="none" stroke="#585859" stroke-width="2" stroke-miterlimit="10" x1="57.334" y1="36.273" x2="71.667" y2="36.273"/>
			<line fill="none" stroke="#585859" stroke-width="2" stroke-miterlimit="10" x1="57.334" y1="40.689" x2="71.667" y2="40.689"/>
			<line fill="none" stroke="#585859" stroke-width="2" stroke-miterlimit="10" x1="57.334" y1="45.107" x2="71.667" y2="45.107"/>
			<line fill="none" stroke="#585859" stroke-width="2" stroke-miterlimit="10" x1="57.334" y1="49.523" x2="71.667" y2="49.523"/>
			<line fill="none" stroke="#585859" stroke-width="2" stroke-miterlimit="10" x1="57.334" y1="53.939" x2="71.667" y2="53.939"/>
			<line fill="none" stroke="#585859" stroke-width="2" stroke-miterlimit="10" x1="57.334" y1="58.355" x2="71.667" y2="58.355"/>
			<line fill="none" stroke="#585859" stroke-width="2" stroke-miterlimit="10" x1="57.334" y1="62.773" x2="71.667" y2="62.773"/>
		</g>
	</g>
	<g>
		<line fill="none" stroke="#585859" stroke-miterlimit="10" x1="28.625" y1="35.875" x2="52.834" y2="63.105"/>
		<g>
			<g>
				<path fill="#585859" d="M52.793,35.939l0.039,27.168h-24l-0.039-27.168H52.793 M53.792,34.939h-26l0.041,29.168h26
					L53.792,34.939L53.792,34.939z"/>
			</g>
			<line fill="none" stroke="#585859" stroke-miterlimit="10" x1="53" y1="35.75" x2="28.625" y2="63.25"/>
		</g>
	</g>
</g>
</svg>
