<?xml version="1.0" encoding="utf-8"?>
<!-- Generator: Adobe Illustrator 15.0.2, SVG Export Plug-In . SVG Version: 6.00 Build 0)  -->
<!DOCTYPE svg PUBLIC "-//W3C//DTD SVG 1.1//EN" "http://www.w3.org/Graphics/SVG/1.1/DTD/svg11.dtd">
<svg version="1.1" id="Layer_1" xmlns="http://www.w3.org/2000/svg" xmlns:xlink="http://www.w3.org/1999/xlink" x="0px" y="0px"
	 width="100px" height="100px" viewBox="0 0 100 100" enable-background="new 0 0 100 100" xml:space="preserve">
<g>
	<path fill="none" stroke="#585859" stroke-miterlimit="10" d="M76.88,66.953c0,0.961-0.778,1.74-1.741,1.74H24.87
		c-0.961,0-1.74-0.779-1.74-1.74V31.965c0-0.961,0.779-1.74,1.74-1.74h50.269c0.963,0,1.741,0.779,1.741,1.74V66.953z"/>
	<g>
		<g>
			<line fill="none" stroke="#585859" stroke-width="2" stroke-miterlimit="10" x1="57.506" y1="36.502" x2="71.839" y2="36.502"/>
			<line fill="none" stroke="#585859" stroke-width="2" stroke-miterlimit="10" x1="57.506" y1="41.002" x2="71.839" y2="41.002"/>
			<line fill="none" stroke="#585859" stroke-width="2" stroke-miterlimit="10" x1="57.506" y1="45.502" x2="71.839" y2="45.502"/>
			<line fill="none" stroke="#585859" stroke-width="2" stroke-miterlimit="10" x1="57.506" y1="50.002" x2="71.839" y2="50.002"/>
		</g>
	</g>
	<g>
		<g>
			<line fill="none" stroke="#585859" stroke-width="2" stroke-miterlimit="10" x1="28.506" y1="54.252" x2="71.839" y2="54.252"/>
			<line fill="none" stroke="#585859" stroke-width="2" stroke-miterlimit="10" x1="28.506" y1="58.752" x2="71.839" y2="58.752"/>
			<line fill="none" stroke="#585859" stroke-width="2" stroke-miterlimit="10" x1="28.506" y1="63.252" x2="71.839" y2="63.252"/>
		</g>
	</g>
	<g>
		<line fill="none" stroke="#585859" stroke-miterlimit="10" x1="28.63" y1="35.32" x2="53.38" y2="48.82"/>
		<g>
			<g>
				<path fill="#585859" d="M52.967,35.611l0.035,13.168h-24l-0.035-13.168H52.967 M53.964,34.611h-26l0.041,15.168h26
					L53.964,34.611L53.964,34.611z"/>
			</g>
			<line fill="none" stroke="#585859" stroke-miterlimit="10" x1="53.172" y1="35.279" x2="28.755" y2="48.945"/>
		</g>
	</g>
</g>
</svg>
