<?xml version="1.0" encoding="utf-8"?>
<!-- Generator: Adobe Illustrator 15.0.2, SVG Export Plug-In . SVG Version: 6.00 Build 0)  -->
<!DOCTYPE svg PUBLIC "-//W3C//DTD SVG 1.1//EN" "http://www.w3.org/Graphics/SVG/1.1/DTD/svg11.dtd">
<svg version="1.1" id="Layer_1" xmlns="http://www.w3.org/2000/svg" xmlns:xlink="http://www.w3.org/1999/xlink" x="0px" y="0px"
	 width="100px" height="100px" viewBox="0 0 100 100" enable-background="new 0 0 100 100" xml:space="preserve">
<g>
	<path fill="none" stroke="#585859" stroke-miterlimit="10" d="M66.884,86.57c0,0.961-0.778,1.74-1.741,1.74H33.874
		c-0.961,0-1.74-0.779-1.74-1.74V12.582c0-0.961,0.779-1.74,1.74-1.74h31.269c0.963,0,1.741,0.779,1.741,1.74V86.57z"/>
	<g>
		<g>
			<line fill="none" stroke="#585859" stroke-width="2" stroke-miterlimit="10" x1="36.4" y1="39.786" x2="62.618" y2="39.786"/>
			<line fill="none" stroke="#585859" stroke-width="2" stroke-miterlimit="10" x1="36.4" y1="44.286" x2="62.618" y2="44.286"/>
			<line fill="none" stroke="#585859" stroke-width="2" stroke-miterlimit="10" x1="36.4" y1="48.786" x2="62.618" y2="48.786"/>
			<line fill="none" stroke="#585859" stroke-width="2" stroke-miterlimit="10" x1="36.4" y1="53.286" x2="62.618" y2="53.286"/>
		</g>
	</g>
	<g>
		<g>
			<path fill="#585859" d="M61.491,21.896l0.034,13.167h-24l-0.035-13.167H61.491 M62.488,20.896h-26l0.041,15.167h26L62.488,20.896
				L62.488,20.896z"/>
		</g>
		<line fill="none" stroke="#585859" stroke-miterlimit="10" x1="37.406" y1="22.062" x2="62.156" y2="35.062"/>
		<line fill="none" stroke="#585859" stroke-miterlimit="10" x1="61.906" y1="21.812" x2="37.156" y2="35.062"/>
	</g>
	<line fill="none" stroke="#585859" stroke-width="3" stroke-miterlimit="10" x1="36.4" y1="16.119" x2="62.618" y2="16.119"/>
	<rect x="36.841" y="57.562" fill="none" stroke="#585859" stroke-miterlimit="10" width="25.334" height="26.666"/>
</g>
</svg>
