<?xml version="1.0" encoding="utf-8"?>
<!-- Generator: Adobe Illustrator 15.0.2, SVG Export Plug-In . SVG Version: 6.00 Build 0)  -->
<!DOCTYPE svg PUBLIC "-//W3C//DTD SVG 1.1//EN" "http://www.w3.org/Graphics/SVG/1.1/DTD/svg11.dtd">
<svg version="1.1" id="Layer_1" xmlns="http://www.w3.org/2000/svg" xmlns:xlink="http://www.w3.org/1999/xlink" x="0px" y="0px"
	 width="100px" height="100px" viewBox="0 0 100 100" enable-background="new 0 0 100 100" xml:space="preserve">
<g>
	<path fill="none" stroke="#585859" stroke-miterlimit="10" d="M76.539,86.632c0,0.961-0.779,1.74-1.74,1.74H24.53
		c-0.961,0-1.74-0.779-1.74-1.74V12.644c0-0.961,0.779-1.74,1.74-1.74h50.269c0.961,0,1.74,0.779,1.74,1.74V86.632z"/>
	<g>
		<g>
			<line fill="none" stroke="#585859" stroke-width="2" stroke-miterlimit="10" x1="27.697" y1="49.848" x2="53.914" y2="49.848"/>
			<line fill="none" stroke="#585859" stroke-width="2" stroke-miterlimit="10" x1="27.697" y1="54.348" x2="53.914" y2="54.348"/>
			<line fill="none" stroke="#585859" stroke-width="2" stroke-miterlimit="10" x1="27.697" y1="58.848" x2="53.914" y2="58.848"/>
			<line fill="none" stroke="#585859" stroke-width="2" stroke-miterlimit="10" x1="27.697" y1="63.348" x2="53.914" y2="63.348"/>
			<line fill="none" stroke="#585859" stroke-width="2" stroke-miterlimit="10" x1="27.697" y1="67.848" x2="53.914" y2="67.848"/>
		</g>
	</g>
	<rect x="25.869" y="15.203" fill="none" stroke="#585859" stroke-miterlimit="10" width="48.092" height="11.098"/>
	<rect x="25.869" y="73.48" fill="none" stroke="#585859" stroke-miterlimit="10" width="48.092" height="11.098"/>
	<g>
		<g>
			<defs>
				<rect id="SVGID_1_" x="25.869" y="15.203" width="48.092" height="11.098"/>
			</defs>
			<clipPath id="SVGID_2_">
				<use xlink:href="#SVGID_1_"  overflow="visible"/>
			</clipPath>
			<g clip-path="url(#SVGID_2_)">
				
					<line fill="none" stroke="#585859" stroke-width="0.75" stroke-miterlimit="10" x1="19.606" y1="-6.708" x2="-57.31" y2="70.207"/>
				
					<line fill="none" stroke="#585859" stroke-width="0.75" stroke-miterlimit="10" x1="23.162" y1="-6.708" x2="-53.753" y2="70.207"/>
				
					<line fill="none" stroke="#585859" stroke-width="0.75" stroke-miterlimit="10" x1="26.717" y1="-6.708" x2="-50.199" y2="70.207"/>
				
					<line fill="none" stroke="#585859" stroke-width="0.75" stroke-miterlimit="10" x1="30.274" y1="-6.708" x2="-46.642" y2="70.207"/>
				
					<line fill="none" stroke="#585859" stroke-width="0.75" stroke-miterlimit="10" x1="33.829" y1="-6.708" x2="-43.085" y2="70.207"/>
				
					<line fill="none" stroke="#585859" stroke-width="0.75" stroke-miterlimit="10" x1="37.385" y1="-6.708" x2="-39.531" y2="70.207"/>
				
					<line fill="none" stroke="#585859" stroke-width="0.75" stroke-miterlimit="10" x1="40.942" y1="-6.708" x2="-35.974" y2="70.207"/>
				
					<line fill="none" stroke="#585859" stroke-width="0.75" stroke-miterlimit="10" x1="44.498" y1="-6.708" x2="-32.417" y2="70.207"/>
				
					<line fill="none" stroke="#585859" stroke-width="0.75" stroke-miterlimit="10" x1="48.053" y1="-6.708" x2="-28.862" y2="70.207"/>
				
					<line fill="none" stroke="#585859" stroke-width="0.75" stroke-miterlimit="10" x1="51.609" y1="-6.708" x2="-25.306" y2="70.207"/>
				
					<line fill="none" stroke="#585859" stroke-width="0.75" stroke-miterlimit="10" x1="55.254" y1="-6.708" x2="-21.663" y2="70.207"/>
				
					<line fill="none" stroke="#585859" stroke-width="0.75" stroke-miterlimit="10" x1="58.811" y1="-6.708" x2="-18.107" y2="70.207"/>
				
					<line fill="none" stroke="#585859" stroke-width="0.75" stroke-miterlimit="10" x1="62.365" y1="-6.708" x2="-14.551" y2="70.207"/>
				
					<line fill="none" stroke="#585859" stroke-width="0.75" stroke-miterlimit="10" x1="66.348" y1="-6.708" x2="-10.568" y2="70.207"/>
				
					<line fill="none" stroke="#585859" stroke-width="0.75" stroke-miterlimit="10" x1="69.904" y1="-6.708" x2="-7.011" y2="70.207"/>
				
					<line fill="none" stroke="#585859" stroke-width="0.75" stroke-miterlimit="10" x1="73.461" y1="-6.708" x2="-3.456" y2="70.207"/>
				<line fill="none" stroke="#585859" stroke-width="0.75" stroke-miterlimit="10" x1="77.016" y1="-6.708" x2="0.1" y2="70.207"/>
				
					<line fill="none" stroke="#585859" stroke-width="0.75" stroke-miterlimit="10" x1="80.574" y1="-6.708" x2="3.656" y2="70.207"/>
				
					<line fill="none" stroke="#585859" stroke-width="0.75" stroke-miterlimit="10" x1="84.129" y1="-6.708" x2="7.213" y2="70.207"/>
				
					<line fill="none" stroke="#585859" stroke-width="0.75" stroke-miterlimit="10" x1="87.686" y1="-6.708" x2="10.769" y2="70.207"/>
				
					<line fill="none" stroke="#585859" stroke-width="0.75" stroke-miterlimit="10" x1="91.24" y1="-6.708" x2="14.325" y2="70.207"/>
				
					<line fill="none" stroke="#585859" stroke-width="0.75" stroke-miterlimit="10" x1="94.797" y1="-6.708" x2="17.88" y2="70.207"/>
				
					<line fill="none" stroke="#585859" stroke-width="0.75" stroke-miterlimit="10" x1="98.352" y1="-6.708" x2="21.437" y2="70.207"/>
				
					<line fill="none" stroke="#585859" stroke-width="0.75" stroke-miterlimit="10" x1="101.91" y1="-6.708" x2="24.993" y2="70.207"/>
				
					<line fill="none" stroke="#585859" stroke-width="0.75" stroke-miterlimit="10" x1="105.465" y1="-6.708" x2="28.548" y2="70.207"/>
				
					<line fill="none" stroke="#585859" stroke-width="0.75" stroke-miterlimit="10" x1="109.021" y1="-6.708" x2="32.104" y2="70.207"/>
				
					<line fill="none" stroke="#585859" stroke-width="0.75" stroke-miterlimit="10" x1="112.578" y1="-6.708" x2="35.661" y2="70.207"/>
				
					<line fill="none" stroke="#585859" stroke-width="0.75" stroke-miterlimit="10" x1="116.135" y1="-6.708" x2="39.217" y2="70.207"/>
				
					<line fill="none" stroke="#585859" stroke-width="0.75" stroke-miterlimit="10" x1="119.688" y1="-6.708" x2="42.773" y2="70.207"/>
				
					<line fill="none" stroke="#585859" stroke-width="0.75" stroke-miterlimit="10" x1="123.246" y1="-6.708" x2="46.329" y2="70.207"/>
				
					<line fill="none" stroke="#585859" stroke-width="0.75" stroke-miterlimit="10" x1="126.801" y1="-6.708" x2="49.885" y2="70.207"/>
				
					<line fill="none" stroke="#585859" stroke-width="0.75" stroke-miterlimit="10" x1="130.357" y1="-6.708" x2="53.439" y2="70.207"/>
				
					<line fill="none" stroke="#585859" stroke-width="0.75" stroke-miterlimit="10" x1="133.912" y1="-6.708" x2="56.996" y2="70.207"/>
				
					<line fill="none" stroke="#585859" stroke-width="0.75" stroke-miterlimit="10" x1="137.469" y1="-6.708" x2="60.553" y2="70.207"/>
			</g>
		</g>
	</g>
	<g>
		<g>
			<defs>
				<rect id="SVGID_3_" x="25.869" y="73.868" width="48.092" height="11.099"/>
			</defs>
			<clipPath id="SVGID_4_">
				<use xlink:href="#SVGID_3_"  overflow="visible"/>
			</clipPath>
			<g clip-path="url(#SVGID_4_)">
				
					<line fill="none" stroke="#585859" stroke-width="0.75" stroke-miterlimit="10" x1="19.606" y1="51.958" x2="-57.31" y2="128.874"/>
				
					<line fill="none" stroke="#585859" stroke-width="0.75" stroke-miterlimit="10" x1="23.162" y1="51.958" x2="-53.753" y2="128.874"/>
				
					<line fill="none" stroke="#585859" stroke-width="0.75" stroke-miterlimit="10" x1="26.717" y1="51.958" x2="-50.199" y2="128.874"/>
				
					<line fill="none" stroke="#585859" stroke-width="0.75" stroke-miterlimit="10" x1="30.274" y1="51.958" x2="-46.642" y2="128.874"/>
				
					<line fill="none" stroke="#585859" stroke-width="0.75" stroke-miterlimit="10" x1="33.829" y1="51.958" x2="-43.085" y2="128.874"/>
				
					<line fill="none" stroke="#585859" stroke-width="0.75" stroke-miterlimit="10" x1="37.385" y1="51.958" x2="-39.531" y2="128.874"/>
				
					<line fill="none" stroke="#585859" stroke-width="0.75" stroke-miterlimit="10" x1="40.942" y1="51.958" x2="-35.974" y2="128.874"/>
				
					<line fill="none" stroke="#585859" stroke-width="0.75" stroke-miterlimit="10" x1="44.498" y1="51.958" x2="-32.417" y2="128.874"/>
				
					<line fill="none" stroke="#585859" stroke-width="0.75" stroke-miterlimit="10" x1="48.053" y1="51.958" x2="-28.862" y2="128.874"/>
				
					<line fill="none" stroke="#585859" stroke-width="0.75" stroke-miterlimit="10" x1="51.609" y1="51.958" x2="-25.306" y2="128.874"/>
				
					<line fill="none" stroke="#585859" stroke-width="0.75" stroke-miterlimit="10" x1="55.254" y1="51.958" x2="-21.663" y2="128.874"/>
				
					<line fill="none" stroke="#585859" stroke-width="0.75" stroke-miterlimit="10" x1="58.811" y1="51.958" x2="-18.107" y2="128.874"/>
				
					<line fill="none" stroke="#585859" stroke-width="0.75" stroke-miterlimit="10" x1="62.365" y1="51.958" x2="-14.551" y2="128.874"/>
				
					<line fill="none" stroke="#585859" stroke-width="0.75" stroke-miterlimit="10" x1="66.348" y1="51.958" x2="-10.568" y2="128.874"/>
				
					<line fill="none" stroke="#585859" stroke-width="0.75" stroke-miterlimit="10" x1="69.904" y1="51.958" x2="-7.011" y2="128.874"/>
				
					<line fill="none" stroke="#585859" stroke-width="0.75" stroke-miterlimit="10" x1="73.461" y1="51.958" x2="-3.456" y2="128.874"/>
				
					<line fill="none" stroke="#585859" stroke-width="0.75" stroke-miterlimit="10" x1="77.016" y1="51.958" x2="0.1" y2="128.874"/>
				
					<line fill="none" stroke="#585859" stroke-width="0.75" stroke-miterlimit="10" x1="80.574" y1="51.958" x2="3.656" y2="128.874"/>
				
					<line fill="none" stroke="#585859" stroke-width="0.75" stroke-miterlimit="10" x1="84.129" y1="51.958" x2="7.213" y2="128.874"/>
				
					<line fill="none" stroke="#585859" stroke-width="0.75" stroke-miterlimit="10" x1="87.686" y1="51.958" x2="10.769" y2="128.874"/>
				
					<line fill="none" stroke="#585859" stroke-width="0.75" stroke-miterlimit="10" x1="91.24" y1="51.958" x2="14.325" y2="128.874"/>
				
					<line fill="none" stroke="#585859" stroke-width="0.75" stroke-miterlimit="10" x1="94.797" y1="51.958" x2="17.88" y2="128.874"/>
				
					<line fill="none" stroke="#585859" stroke-width="0.75" stroke-miterlimit="10" x1="98.352" y1="51.958" x2="21.437" y2="128.874"/>
				
					<line fill="none" stroke="#585859" stroke-width="0.75" stroke-miterlimit="10" x1="101.91" y1="51.958" x2="24.993" y2="128.874"/>
				
					<line fill="none" stroke="#585859" stroke-width="0.75" stroke-miterlimit="10" x1="105.465" y1="51.958" x2="28.548" y2="128.874"/>
				
					<line fill="none" stroke="#585859" stroke-width="0.75" stroke-miterlimit="10" x1="109.021" y1="51.958" x2="32.104" y2="128.874"/>
				
					<line fill="none" stroke="#585859" stroke-width="0.75" stroke-miterlimit="10" x1="112.578" y1="51.958" x2="35.661" y2="128.874"/>
				
					<line fill="none" stroke="#585859" stroke-width="0.75" stroke-miterlimit="10" x1="116.135" y1="51.958" x2="39.217" y2="128.874"/>
				
					<line fill="none" stroke="#585859" stroke-width="0.75" stroke-miterlimit="10" x1="119.688" y1="51.958" x2="42.773" y2="128.874"/>
				
					<line fill="none" stroke="#585859" stroke-width="0.75" stroke-miterlimit="10" x1="123.246" y1="51.958" x2="46.329" y2="128.874"/>
				
					<line fill="none" stroke="#585859" stroke-width="0.75" stroke-miterlimit="10" x1="126.801" y1="51.958" x2="49.885" y2="128.874"/>
				
					<line fill="none" stroke="#585859" stroke-width="0.75" stroke-miterlimit="10" x1="130.357" y1="51.958" x2="53.439" y2="128.874"/>
				
					<line fill="none" stroke="#585859" stroke-width="0.75" stroke-miterlimit="10" x1="133.912" y1="51.958" x2="56.996" y2="128.874"/>
				
					<line fill="none" stroke="#585859" stroke-width="0.75" stroke-miterlimit="10" x1="137.469" y1="51.958" x2="60.553" y2="128.874"/>
			</g>
		</g>
	</g>
	<rect x="57.695" y="30.967" fill="none" stroke="#585859" stroke-miterlimit="10" width="14.25" height="37.75"/>
	<g>
		<path fill="#585859" d="M52.626,31.958l0.035,13.167h-24l-0.035-13.167H52.626 M53.623,30.958h-26l0.041,15.167h26L53.623,30.958
			L53.623,30.958z"/>
	</g>
	<line fill="none" stroke="#585859" stroke-miterlimit="10" x1="28.165" y1="31.625" x2="53.164" y2="45.125"/>
	<line fill="none" stroke="#585859" stroke-miterlimit="10" x1="53.414" y1="31.625" x2="27.915" y2="45.125"/>
</g>
</svg>
