<?xml version="1.0" encoding="utf-8"?>
<!-- Generator: Adobe Illustrator 15.0.2, SVG Export Plug-In . SVG Version: 6.00 Build 0)  -->
<!DOCTYPE svg PUBLIC "-//W3C//DTD SVG 1.1//EN" "http://www.w3.org/Graphics/SVG/1.1/DTD/svg11.dtd">
<svg version="1.1" id="Layer_1" xmlns="http://www.w3.org/2000/svg" xmlns:xlink="http://www.w3.org/1999/xlink" x="0px" y="0px"
	 width="100px" height="100px" viewBox="0 0 100 100" enable-background="new 0 0 100 100" xml:space="preserve">
<g>
	<path fill="none" stroke="#585859" stroke-miterlimit="10" d="M76.867,87.006c0,0.961-0.779,1.74-1.741,1.74H24.857
		c-0.961,0-1.74-0.779-1.74-1.74V13.017c0-0.961,0.779-1.74,1.74-1.74h50.269c0.962,0,1.741,0.779,1.741,1.74V87.006z"/>
	<rect x="25.946" y="15.576" fill="none" stroke="#585859" stroke-miterlimit="10" width="48.092" height="11.098"/>
	<rect x="25.946" y="73.854" fill="none" stroke="#585859" stroke-miterlimit="10" width="48.092" height="11.099"/>
	<g>
		<line fill="none" stroke="#585859" stroke-miterlimit="10" x1="28.024" y1="31.801" x2="71.742" y2="31.801"/>
		<g>
			<line fill="none" stroke="#585859" stroke-width="2" stroke-miterlimit="10" x1="28.024" y1="36.721" x2="71.742" y2="36.721"/>
			<line fill="none" stroke="#585859" stroke-width="2" stroke-miterlimit="10" x1="28.024" y1="41.221" x2="71.742" y2="41.221"/>
			<line fill="none" stroke="#585859" stroke-width="2" stroke-miterlimit="10" x1="28.024" y1="45.721" x2="71.742" y2="45.721"/>
			<line fill="none" stroke="#585859" stroke-width="2" stroke-miterlimit="10" x1="28.024" y1="50.221" x2="71.742" y2="50.221"/>
			<line fill="none" stroke="#585859" stroke-width="2" stroke-miterlimit="10" x1="28.024" y1="54.721" x2="71.742" y2="54.721"/>
			<line fill="none" stroke="#585859" stroke-width="2" stroke-miterlimit="10" x1="28.024" y1="59.221" x2="71.742" y2="59.221"/>
			<line fill="none" stroke="#585859" stroke-width="2" stroke-miterlimit="10" x1="28.024" y1="63.721" x2="71.742" y2="63.721"/>
			<line fill="none" stroke="#585859" stroke-width="2" stroke-miterlimit="10" x1="28.024" y1="68.221" x2="71.742" y2="68.221"/>
			<line fill="none" stroke="#585859" stroke-width="2" stroke-miterlimit="10" x1="28.024" y1="32.221" x2="71.742" y2="32.221"/>
		</g>
	</g>
	<g>
		<g>
			<defs>
				<rect id="SVGID_1_" x="25.946" y="15.576" width="48.092" height="11.098"/>
			</defs>
			<clipPath id="SVGID_2_">
				<use xlink:href="#SVGID_1_"  overflow="visible"/>
			</clipPath>
			<g clip-path="url(#SVGID_2_)">
				
					<line fill="none" stroke="#585859" stroke-width="0.75" stroke-miterlimit="10" x1="19.684" y1="-6.335" x2="-57.232" y2="70.58"/>
				
					<line fill="none" stroke="#585859" stroke-width="0.75" stroke-miterlimit="10" x1="23.239" y1="-6.335" x2="-53.676" y2="70.58"/>
				
					<line fill="none" stroke="#585859" stroke-width="0.75" stroke-miterlimit="10" x1="26.795" y1="-6.335" x2="-50.121" y2="70.58"/>
				
					<line fill="none" stroke="#585859" stroke-width="0.75" stroke-miterlimit="10" x1="30.352" y1="-6.335" x2="-46.564" y2="70.58"/>
				
					<line fill="none" stroke="#585859" stroke-width="0.75" stroke-miterlimit="10" x1="33.906" y1="-6.335" x2="-43.008" y2="70.58"/>
				
					<line fill="none" stroke="#585859" stroke-width="0.75" stroke-miterlimit="10" x1="37.463" y1="-6.335" x2="-39.453" y2="70.58"/>
				
					<line fill="none" stroke="#585859" stroke-width="0.75" stroke-miterlimit="10" x1="41.02" y1="-6.335" x2="-35.896" y2="70.58"/>
				
					<line fill="none" stroke="#585859" stroke-width="0.75" stroke-miterlimit="10" x1="44.575" y1="-6.335" x2="-32.34" y2="70.58"/>
				
					<line fill="none" stroke="#585859" stroke-width="0.75" stroke-miterlimit="10" x1="48.131" y1="-6.335" x2="-28.784" y2="70.58"/>
				
					<line fill="none" stroke="#585859" stroke-width="0.75" stroke-miterlimit="10" x1="51.688" y1="-6.335" x2="-25.229" y2="70.58"/>
				
					<line fill="none" stroke="#585859" stroke-width="0.75" stroke-miterlimit="10" x1="55.331" y1="-6.335" x2="-21.585" y2="70.58"/>
				
					<line fill="none" stroke="#585859" stroke-width="0.75" stroke-miterlimit="10" x1="58.889" y1="-6.335" x2="-18.029" y2="70.58"/>
				
					<line fill="none" stroke="#585859" stroke-width="0.75" stroke-miterlimit="10" x1="62.441" y1="-6.335" x2="-14.474" y2="70.58"/>
				
					<line fill="none" stroke="#585859" stroke-width="0.75" stroke-miterlimit="10" x1="66.426" y1="-6.335" x2="-10.49" y2="70.58"/>
				
					<line fill="none" stroke="#585859" stroke-width="0.75" stroke-miterlimit="10" x1="69.98" y1="-6.335" x2="-6.934" y2="70.58"/>
				
					<line fill="none" stroke="#585859" stroke-width="0.75" stroke-miterlimit="10" x1="73.539" y1="-6.335" x2="-3.378" y2="70.58"/>
				
					<line fill="none" stroke="#585859" stroke-width="0.75" stroke-miterlimit="10" x1="77.093" y1="-6.335" x2="0.178" y2="70.58"/>
				<line fill="none" stroke="#585859" stroke-width="0.75" stroke-miterlimit="10" x1="80.65" y1="-6.335" x2="3.733" y2="70.58"/>
				
					<line fill="none" stroke="#585859" stroke-width="0.75" stroke-miterlimit="10" x1="84.206" y1="-6.335" x2="7.291" y2="70.58"/>
				
					<line fill="none" stroke="#585859" stroke-width="0.75" stroke-miterlimit="10" x1="87.764" y1="-6.335" x2="10.847" y2="70.58"/>
				
					<line fill="none" stroke="#585859" stroke-width="0.75" stroke-miterlimit="10" x1="91.318" y1="-6.335" x2="14.402" y2="70.58"/>
				
					<line fill="none" stroke="#585859" stroke-width="0.75" stroke-miterlimit="10" x1="94.874" y1="-6.335" x2="17.958" y2="70.58"/>
				
					<line fill="none" stroke="#585859" stroke-width="0.75" stroke-miterlimit="10" x1="98.43" y1="-6.335" x2="21.515" y2="70.58"/>
				
					<line fill="none" stroke="#585859" stroke-width="0.75" stroke-miterlimit="10" x1="101.986" y1="-6.335" x2="25.07" y2="70.58"/>
				
					<line fill="none" stroke="#585859" stroke-width="0.75" stroke-miterlimit="10" x1="105.542" y1="-6.335" x2="28.626" y2="70.58"/>
				
					<line fill="none" stroke="#585859" stroke-width="0.75" stroke-miterlimit="10" x1="109.1" y1="-6.335" x2="32.182" y2="70.58"/>
				
					<line fill="none" stroke="#585859" stroke-width="0.75" stroke-miterlimit="10" x1="112.654" y1="-6.335" x2="35.738" y2="70.58"/>
				
					<line fill="none" stroke="#585859" stroke-width="0.75" stroke-miterlimit="10" x1="116.212" y1="-6.335" x2="39.295" y2="70.58"/>
				
					<line fill="none" stroke="#585859" stroke-width="0.75" stroke-miterlimit="10" x1="119.766" y1="-6.335" x2="42.851" y2="70.58"/>
				
					<line fill="none" stroke="#585859" stroke-width="0.75" stroke-miterlimit="10" x1="123.323" y1="-6.335" x2="46.406" y2="70.58"/>
				
					<line fill="none" stroke="#585859" stroke-width="0.75" stroke-miterlimit="10" x1="126.879" y1="-6.335" x2="49.963" y2="70.58"/>
				
					<line fill="none" stroke="#585859" stroke-width="0.75" stroke-miterlimit="10" x1="130.436" y1="-6.335" x2="53.518" y2="70.58"/>
				
					<line fill="none" stroke="#585859" stroke-width="0.75" stroke-miterlimit="10" x1="133.99" y1="-6.335" x2="57.074" y2="70.58"/>
				
					<line fill="none" stroke="#585859" stroke-width="0.75" stroke-miterlimit="10" x1="137.547" y1="-6.335" x2="60.631" y2="70.58"/>
			</g>
		</g>
	</g>
	<g>
		<g>
			<defs>
				<rect id="SVGID_3_" x="25.946" y="74.242" width="48.092" height="11.098"/>
			</defs>
			<clipPath id="SVGID_4_">
				<use xlink:href="#SVGID_3_"  overflow="visible"/>
			</clipPath>
			<g clip-path="url(#SVGID_4_)">
				
					<line fill="none" stroke="#585859" stroke-width="0.75" stroke-miterlimit="10" x1="19.684" y1="52.332" x2="-57.232" y2="129.248"/>
				
					<line fill="none" stroke="#585859" stroke-width="0.75" stroke-miterlimit="10" x1="23.239" y1="52.332" x2="-53.676" y2="129.248"/>
				
					<line fill="none" stroke="#585859" stroke-width="0.75" stroke-miterlimit="10" x1="26.795" y1="52.332" x2="-50.121" y2="129.248"/>
				
					<line fill="none" stroke="#585859" stroke-width="0.75" stroke-miterlimit="10" x1="30.352" y1="52.332" x2="-46.564" y2="129.248"/>
				
					<line fill="none" stroke="#585859" stroke-width="0.75" stroke-miterlimit="10" x1="33.906" y1="52.332" x2="-43.008" y2="129.248"/>
				
					<line fill="none" stroke="#585859" stroke-width="0.75" stroke-miterlimit="10" x1="37.463" y1="52.332" x2="-39.453" y2="129.248"/>
				
					<line fill="none" stroke="#585859" stroke-width="0.75" stroke-miterlimit="10" x1="41.02" y1="52.332" x2="-35.896" y2="129.248"/>
				
					<line fill="none" stroke="#585859" stroke-width="0.75" stroke-miterlimit="10" x1="44.575" y1="52.332" x2="-32.34" y2="129.248"/>
				
					<line fill="none" stroke="#585859" stroke-width="0.75" stroke-miterlimit="10" x1="48.131" y1="52.332" x2="-28.784" y2="129.248"/>
				
					<line fill="none" stroke="#585859" stroke-width="0.75" stroke-miterlimit="10" x1="51.688" y1="52.332" x2="-25.229" y2="129.248"/>
				
					<line fill="none" stroke="#585859" stroke-width="0.75" stroke-miterlimit="10" x1="55.331" y1="52.332" x2="-21.585" y2="129.248"/>
				
					<line fill="none" stroke="#585859" stroke-width="0.75" stroke-miterlimit="10" x1="58.889" y1="52.332" x2="-18.029" y2="129.248"/>
				
					<line fill="none" stroke="#585859" stroke-width="0.75" stroke-miterlimit="10" x1="62.441" y1="52.332" x2="-14.474" y2="129.248"/>
				
					<line fill="none" stroke="#585859" stroke-width="0.75" stroke-miterlimit="10" x1="66.426" y1="52.332" x2="-10.49" y2="129.248"/>
				
					<line fill="none" stroke="#585859" stroke-width="0.75" stroke-miterlimit="10" x1="69.98" y1="52.332" x2="-6.934" y2="129.248"/>
				
					<line fill="none" stroke="#585859" stroke-width="0.75" stroke-miterlimit="10" x1="73.539" y1="52.332" x2="-3.378" y2="129.248"/>
				
					<line fill="none" stroke="#585859" stroke-width="0.75" stroke-miterlimit="10" x1="77.093" y1="52.332" x2="0.178" y2="129.248"/>
				
					<line fill="none" stroke="#585859" stroke-width="0.75" stroke-miterlimit="10" x1="80.65" y1="52.332" x2="3.733" y2="129.248"/>
				
					<line fill="none" stroke="#585859" stroke-width="0.75" stroke-miterlimit="10" x1="84.206" y1="52.332" x2="7.291" y2="129.248"/>
				
					<line fill="none" stroke="#585859" stroke-width="0.75" stroke-miterlimit="10" x1="87.764" y1="52.332" x2="10.847" y2="129.248"/>
				
					<line fill="none" stroke="#585859" stroke-width="0.75" stroke-miterlimit="10" x1="91.318" y1="52.332" x2="14.402" y2="129.248"/>
				
					<line fill="none" stroke="#585859" stroke-width="0.75" stroke-miterlimit="10" x1="94.874" y1="52.332" x2="17.958" y2="129.248"/>
				
					<line fill="none" stroke="#585859" stroke-width="0.75" stroke-miterlimit="10" x1="98.43" y1="52.332" x2="21.515" y2="129.248"/>
				
					<line fill="none" stroke="#585859" stroke-width="0.75" stroke-miterlimit="10" x1="101.986" y1="52.332" x2="25.07" y2="129.248"/>
				
					<line fill="none" stroke="#585859" stroke-width="0.75" stroke-miterlimit="10" x1="105.542" y1="52.332" x2="28.626" y2="129.248"/>
				
					<line fill="none" stroke="#585859" stroke-width="0.75" stroke-miterlimit="10" x1="109.1" y1="52.332" x2="32.182" y2="129.248"/>
				
					<line fill="none" stroke="#585859" stroke-width="0.75" stroke-miterlimit="10" x1="112.654" y1="52.332" x2="35.738" y2="129.248"/>
				
					<line fill="none" stroke="#585859" stroke-width="0.75" stroke-miterlimit="10" x1="116.212" y1="52.332" x2="39.295" y2="129.248"/>
				
					<line fill="none" stroke="#585859" stroke-width="0.75" stroke-miterlimit="10" x1="119.766" y1="52.332" x2="42.851" y2="129.248"/>
				
					<line fill="none" stroke="#585859" stroke-width="0.75" stroke-miterlimit="10" x1="123.323" y1="52.332" x2="46.406" y2="129.248"/>
				
					<line fill="none" stroke="#585859" stroke-width="0.75" stroke-miterlimit="10" x1="126.879" y1="52.332" x2="49.963" y2="129.248"/>
				
					<line fill="none" stroke="#585859" stroke-width="0.75" stroke-miterlimit="10" x1="130.436" y1="52.332" x2="53.518" y2="129.248"/>
				
					<line fill="none" stroke="#585859" stroke-width="0.75" stroke-miterlimit="10" x1="133.99" y1="52.332" x2="57.074" y2="129.248"/>
				
					<line fill="none" stroke="#585859" stroke-width="0.75" stroke-miterlimit="10" x1="137.547" y1="52.332" x2="60.631" y2="129.248"/>
			</g>
		</g>
	</g>
</g>
</svg>
